<?xml version="1.0" encoding="utf-8"?>
<!-- Generator: Adobe Illustrator 27.0.0, SVG Export Plug-In . SVG Version: 6.00 Build 0)  -->
<svg version="1.1" id="Capa_1" xmlns="http://www.w3.org/2000/svg" xmlns:xlink="http://www.w3.org/1999/xlink" x="0px" y="0px"
	 viewBox="0 0 157 41.6" style="enable-background:new 0 0 157 41.6;" xml:space="preserve">
<style type="text/css">
	.st0{fill:#D8D8D8;}
	.st1{fill:#820001;}
	.st2{fill:url(#SVGID_1_);}
	.st3{enable-background:new    ;}
	.st4{fill:#FFFFFF;}
	.st5{stroke:#000000;stroke-width:1.3132;}
</style>
<path class="st0" d="M140.5,41.6h-124C7.4,41.6,0,34.1,0,24.8v-8.1C0,7.5,7.4,0,16.5,0h124c9.1,0,16.5,7.5,16.5,16.7v8.1
	C157,34.1,149.6,41.6,140.5,41.6z M16.5,1C8,1,1,8.1,1,16.7v8.1c0,8.7,7,15.7,15.5,15.7h124c8.5,0,15.5-7.1,15.5-15.7v-8.1
	C156,8.1,149,1,140.5,1C140.5,1,16.5,1,16.5,1z"/>
<g>
	<path class="st1" d="M16.9,1.1h123.2c8.8,0,15.9,7.1,15.9,15.8v7.9c0,8.7-7.1,15.8-15.9,15.8H16.9C8.1,40.7,1,33.6,1,24.8v-7.9
		C1,8.2,8.1,1.1,16.9,1.1z"/>
</g>
<linearGradient id="SVGID_1_" gradientUnits="userSpaceOnUse" x1="78.5004" y1="3.3441" x2="78.5004" y2="43.4203" gradientTransform="matrix(1 0 0 -1 0 44)">
	<stop  offset="7.300000e-02" style="stop-color:#FFFFFF;stop-opacity:0.7"/>
	<stop  offset="1" style="stop-color:#D8D8D8;stop-opacity:0"/>
</linearGradient>
<path class="st2" d="M140.1,40.7H16.9c-9,0-16.4-7.2-16.4-16.1v-7.8c0-8.9,7.4-16.1,16.4-16.1h123.2c9,0,16.4,7.2,16.4,16.1v7.8
	C156.5,33.4,149.1,40.7,140.1,40.7z M16.9,1.6C8.4,1.6,1.5,8.4,1.5,16.7v7.8c0,8.3,6.9,15.1,15.4,15.1h123.2
	c8.5,0,15.4-6.8,15.4-15.1v-7.8c0-8.3-6.9-15.1-15.4-15.1C140.1,1.6,16.9,1.6,16.9,1.6z"/>
<g>
	<g class="st3">
		<path class="st4" d="M42,15.1L42,15.1c0-2,1.5-3.6,3.6-3.6c1.3,0,2.1,0.4,2.7,1.1l-0.8,0.9c-0.6-0.5-1.1-0.8-1.9-0.8
			c-1.3,0-2.3,1.1-2.3,2.4v0c0,1.4,1,2.4,2.3,2.4c0.8,0,1.4-0.3,2-0.9l0.8,0.8c-0.7,0.8-1.5,1.2-2.8,1.2C43.5,18.6,42,17,42,15.1z"
			/>
		<path class="st4" d="M49.5,11.3h1.2v2.8c0.3-0.5,0.8-0.9,1.6-0.9c1.2,0,1.9,0.8,1.9,2v3.3H53v-3c0-0.8-0.4-1.3-1.1-1.3
			c-0.7,0-1.2,0.5-1.2,1.3v2.9h-1.2V11.3z"/>
		<path class="st4" d="M55.3,15.9L55.3,15.9c0-1.5,1.1-2.7,2.5-2.7c1.7,0,2.5,1.3,2.5,2.8c0,0.1,0,0.2,0,0.3h-3.8
			c0.1,0.9,0.7,1.3,1.5,1.3c0.6,0,1-0.2,1.4-0.6l0.7,0.6c-0.5,0.6-1.2,1-2.1,1C56.5,18.6,55.3,17.5,55.3,15.9z M59.2,15.5
			c-0.1-0.8-0.5-1.4-1.3-1.4c-0.7,0-1.2,0.6-1.4,1.4H59.2z"/>
		<path class="st4" d="M61.3,15.9L61.3,15.9c0-1.5,1.1-2.7,2.7-2.7c1,0,1.6,0.4,2.1,0.9l-0.8,0.8c-0.4-0.4-0.8-0.7-1.3-0.7
			c-0.9,0-1.5,0.8-1.5,1.7v0c0,0.9,0.6,1.7,1.6,1.7c0.6,0,1-0.3,1.4-0.6l0.7,0.7c-0.5,0.6-1.1,1-2.1,1
			C62.4,18.6,61.3,17.4,61.3,15.9z"/>
		<path class="st4" d="M67.2,11.3h1.2v4.3l2.2-2.3H72l-2.1,2.1l2.1,3.1h-1.4l-1.5-2.3L68.4,17v1.5h-1.2V11.3z"/>
	</g>
	<g class="st3">
		<path class="st4" d="M75.9,13.3h1.2v0.8c0.3-0.5,0.8-0.9,1.6-0.9c0.8,0,1.3,0.4,1.6,0.9c0.4-0.6,1-0.9,1.8-0.9
			c1.1,0,1.8,0.7,1.8,2v3.3h-1.2v-3c0-0.8-0.4-1.3-1.1-1.3c-0.7,0-1.1,0.5-1.1,1.3v2.9h-1.2v-3c0-0.8-0.4-1.3-1.1-1.3
			s-1.1,0.5-1.1,1.3v2.9h-1.2V13.3z"/>
	</g>
	<g class="st3">
		<path class="st4" d="M88.7,13.3H90l-2.1,5.4c-0.4,1.1-0.9,1.5-1.7,1.5c-0.5,0-0.9-0.1-1.2-0.3l0.4-0.9c0.2,0.1,0.5,0.2,0.7,0.2
			c0.3,0,0.5-0.1,0.7-0.6l-2.2-5.2h1.3l1.5,3.9L88.7,13.3z"/>
		<path class="st4" d="M93.9,16.6v-3.3h1.2v3c0,0.8,0.4,1.3,1.1,1.3c0.7,0,1.2-0.5,1.2-1.3v-2.9h1.2v5.2h-1.2v-0.8
			c-0.3,0.5-0.8,0.9-1.6,0.9C94.6,18.6,93.9,17.8,93.9,16.6z"/>
		<path class="st4" d="M99.7,17.8l0.5-0.8c0.6,0.4,1.2,0.6,1.7,0.6c0.5,0,0.8-0.2,0.8-0.6v0c0-0.4-0.6-0.5-1.2-0.7
			c-0.8-0.2-1.6-0.5-1.6-1.5v0c0-1,0.8-1.6,1.9-1.6c0.7,0,1.4,0.2,1.9,0.6l-0.5,0.8c-0.5-0.3-1-0.5-1.5-0.5c-0.5,0-0.7,0.2-0.7,0.5
			v0c0,0.4,0.6,0.6,1.2,0.7c0.8,0.2,1.6,0.6,1.6,1.5v0c0,1.1-0.8,1.6-1.9,1.6C101.1,18.6,100.3,18.3,99.7,17.8z"/>
		<path class="st4" d="M104.7,15.9L104.7,15.9c0-1.5,1.1-2.7,2.5-2.7c1.7,0,2.5,1.3,2.5,2.8c0,0.1,0,0.2,0,0.3h-3.8
			c0.1,0.9,0.7,1.3,1.5,1.3c0.6,0,1-0.2,1.4-0.6l0.7,0.6c-0.5,0.6-1.2,1-2.1,1C105.9,18.6,104.7,17.5,104.7,15.9z M108.6,15.5
			c-0.1-0.8-0.5-1.4-1.3-1.4c-0.7,0-1.2,0.6-1.4,1.4H108.6z"/>
		<path class="st4" d="M111,13.3h1.2v1.2c0.3-0.8,0.9-1.3,1.8-1.3v1.3H114c-1.1,0-1.8,0.7-1.8,2.1v2H111V13.3z"/>
		<path class="st4" d="M114.6,17.8l0.5-0.8c0.6,0.4,1.2,0.6,1.7,0.6c0.5,0,0.8-0.2,0.8-0.6v0c0-0.4-0.6-0.5-1.2-0.7
			c-0.8-0.2-1.6-0.5-1.6-1.5v0c0-1,0.8-1.6,1.9-1.6c0.7,0,1.4,0.2,1.9,0.6l-0.5,0.8c-0.5-0.3-1-0.5-1.5-0.5c-0.5,0-0.7,0.2-0.7,0.5
			v0c0,0.4,0.6,0.6,1.2,0.7c0.8,0.2,1.6,0.6,1.6,1.5v0c0,1.1-0.8,1.6-1.9,1.6C116.1,18.6,115.3,18.3,114.6,17.8z"/>
		<path class="st4" d="M119.7,15.9L119.7,15.9c0-1.5,1.1-2.7,2.7-2.7c1,0,1.6,0.4,2.1,0.9l-0.8,0.8c-0.4-0.4-0.8-0.7-1.3-0.7
			c-0.9,0-1.5,0.8-1.5,1.7v0c0,0.9,0.6,1.7,1.6,1.7c0.6,0,1-0.3,1.4-0.6l0.7,0.7c-0.5,0.6-1.1,1-2.1,1
			C120.9,18.6,119.7,17.4,119.7,15.9z"/>
		<path class="st4" d="M125.6,13.3h1.2v1.2c0.3-0.8,0.9-1.3,1.8-1.3v1.3h-0.1c-1.1,0-1.8,0.7-1.8,2.1v2h-1.2V13.3z"/>
		<path class="st4" d="M129.7,11.3h1.3v1.1h-1.3V11.3z M129.8,13.3h1.2v5.2h-1.2V13.3z"/>
		<path class="st4" d="M132.5,13.3h1.2v0.9c0.4-0.5,0.9-1,1.8-1c1.2,0,2.4,1,2.4,2.7v0c0,1.7-1.2,2.7-2.4,2.7
			c-0.9,0-1.4-0.4-1.8-0.9v2.4h-1.2V13.3z M136.7,15.9L136.7,15.9c0-1-0.7-1.7-1.5-1.7c-0.8,0-1.5,0.7-1.5,1.7v0
			c0,1,0.7,1.7,1.5,1.7S136.7,16.9,136.7,15.9z"/>
		<path class="st4" d="M139.4,17.1v-2.7h-0.7v-1h0.7v-1.4h1.2v1.4h1.4v1h-1.4v2.6c0,0.5,0.2,0.7,0.6,0.7c0.3,0,0.5-0.1,0.7-0.2v1
			c-0.3,0.2-0.6,0.3-1.1,0.3C140,18.6,139.4,18.2,139.4,17.1z"/>
		<path class="st4" d="M142.8,17.8l0.5-0.8c0.6,0.4,1.2,0.6,1.7,0.6c0.5,0,0.8-0.2,0.8-0.6v0c0-0.4-0.6-0.5-1.2-0.7
			c-0.8-0.2-1.6-0.5-1.6-1.5v0c0-1,0.8-1.6,1.9-1.6c0.7,0,1.4,0.2,1.9,0.6l-0.5,0.8c-0.5-0.3-1-0.5-1.5-0.5c-0.5,0-0.7,0.2-0.7,0.5
			v0c0,0.4,0.6,0.6,1.2,0.7c0.8,0.2,1.6,0.6,1.6,1.5v0c0,1.1-0.8,1.6-1.9,1.6C144.3,18.6,143.5,18.3,142.8,17.8z"/>
	</g>
	<g class="st3">
		<path class="st4" d="M41.9,27.8L41.9,27.8c0-1.5,1.2-2.7,2.8-2.7c1.6,0,2.8,1.2,2.8,2.7v0c0,1.5-1.2,2.7-2.8,2.7
			C43.1,30.5,41.9,29.2,41.9,27.8z M46.3,27.8L46.3,27.8c0-0.9-0.7-1.7-1.6-1.7c-1,0-1.6,0.8-1.6,1.7v0c0,0.9,0.7,1.7,1.6,1.7
			C45.7,29.4,46.3,28.7,46.3,27.8z"/>
		<path class="st4" d="M48.7,25.1h1.2v0.8c0.3-0.5,0.8-0.9,1.6-0.9c1.2,0,1.9,0.8,1.9,2v3.3h-1.2v-3c0-0.8-0.4-1.3-1.1-1.3
			c-0.7,0-1.2,0.5-1.2,1.3v2.9h-1.2V25.1z"/>
		<path class="st4" d="M57.6,26.9L57.6,26.9c0-2,1.5-3.6,3.6-3.6c1.2,0,1.9,0.3,2.7,0.9L63,25.2c-0.5-0.5-1.1-0.7-1.9-0.7
			c-1.3,0-2.2,1.1-2.2,2.4v0c0,1.4,0.9,2.5,2.3,2.5c0.7,0,1.2-0.2,1.7-0.5v-1.3h-1.8v-1.1H64v2.9c-0.7,0.6-1.7,1.1-2.9,1.1
			C59,30.5,57.6,28.9,57.6,26.9z"/>
	</g>
	<g class="st3">
		<path class="st4" d="M65.5,25.1h1.2v1.2c0.3-0.8,0.9-1.3,1.8-1.3v1.3h-0.1c-1.1,0-1.8,0.7-1.8,2.1v2h-1.2V25.1z"/>
	</g>
	<g class="st3">
		<path class="st4" d="M69.1,27.8L69.1,27.8c0-1.5,1.1-2.7,2.5-2.7c1.7,0,2.5,1.3,2.5,2.8c0,0.1,0,0.2,0,0.3h-3.8
			c0.1,0.9,0.7,1.3,1.5,1.3c0.6,0,1-0.2,1.4-0.6l0.7,0.6c-0.5,0.6-1.2,1-2.1,1C70.3,30.5,69.1,29.4,69.1,27.8z M73,27.4
			c-0.1-0.8-0.5-1.4-1.3-1.4c-0.7,0-1.2,0.6-1.4,1.4H73z"/>
		<path class="st4" d="M75,28.8L75,28.8c0-1.2,0.9-1.7,2.2-1.7c0.6,0,1,0.1,1.4,0.2v-0.1c0-0.8-0.5-1.1-1.3-1.1
			c-0.6,0-1,0.1-1.5,0.3l-0.3-0.9c0.6-0.2,1.1-0.4,2-0.4c0.8,0,1.4,0.2,1.7,0.6c0.4,0.4,0.6,0.9,0.6,1.6v3.1h-1.2v-0.7
			c-0.4,0.4-0.9,0.8-1.7,0.8C75.9,30.4,75,29.9,75,28.8z M78.6,28.5v-0.4c-0.3-0.1-0.7-0.2-1.2-0.2c-0.8,0-1.2,0.3-1.2,0.9v0
			c0,0.5,0.4,0.8,1,0.8C78,29.6,78.6,29.1,78.6,28.5z"/>
	</g>
	<g class="st3">
		<path class="st4" d="M80.7,29.7l0.5-0.8c0.6,0.4,1.2,0.6,1.7,0.6c0.5,0,0.8-0.2,0.8-0.6v0c0-0.4-0.6-0.5-1.2-0.7
			C81.8,28,81,27.6,81,26.7v0c0-1,0.8-1.6,1.9-1.6c0.7,0,1.4,0.2,1.9,0.6l-0.5,0.8c-0.5-0.3-1-0.5-1.5-0.5c-0.5,0-0.7,0.2-0.7,0.5v0
			c0,0.4,0.6,0.6,1.2,0.7c0.8,0.2,1.6,0.6,1.6,1.5v0c0,1.1-0.8,1.6-1.9,1.6C82.2,30.4,81.4,30.2,80.7,29.7z"/>
	</g>
	<g class="st3">
		<path class="st4" d="M89.6,25.1h1.2l-2.1,5.4c-0.4,1.1-0.9,1.5-1.7,1.5c-0.5,0-0.9-0.1-1.2-0.3l0.4-0.9c0.2,0.1,0.5,0.2,0.7,0.2
			c0.3,0,0.5-0.1,0.7-0.6l-2.2-5.2h1.3l1.5,3.9L89.6,25.1z"/>
	</g>
	<g class="st3">
		<path class="st4" d="M94.9,23.4h5.1v1.1h-3.9v1.9h3.5v1.1h-3.5v2.8h-1.2V23.4z"/>
	</g>
	<g class="st3">
		<path class="st4" d="M100.8,27.8L100.8,27.8c0-1.5,1.2-2.7,2.8-2.7c1.6,0,2.8,1.2,2.8,2.7v0c0,1.5-1.2,2.7-2.8,2.7
			C102,30.5,100.8,29.2,100.8,27.8z M105.2,27.8L105.2,27.8c0-0.9-0.7-1.7-1.6-1.7c-1,0-1.6,0.8-1.6,1.7v0c0,0.9,0.7,1.7,1.6,1.7
			C104.6,29.4,105.2,28.7,105.2,27.8z"/>
		<path class="st4" d="M107.6,25.1h1.2v1.2c0.3-0.8,0.9-1.3,1.8-1.3v1.3h-0.1c-1.1,0-1.8,0.7-1.8,2.1v2h-1.2V25.1z"/>
		<path class="st4" d="M111.7,23.1h1.2v4.3l2.2-2.3h1.5l-2.1,2.1l2.1,3.1h-1.4l-1.5-2.3l-0.7,0.8v1.5h-1.2V23.1z"/>
	</g>
</g>
<g>
	<circle cx="21.7" cy="20.1" r="15.8"/>
</g>
<g>
	<path class="st4" d="M16.5,6.5h-0.9c-0.3,0.1-0.6,0.3-1,0.4h1.9V6.5z"/>
	<path class="st4" d="M16.5,7.7h-3.1c-0.1,0-0.1,0.1-0.2,0.1v0.3h3.3V7.7z"/>
	<path class="st4" d="M19.7,6.8c0.1-0.1,0.3-0.2,0.5-0.3c0.2-0.1,0.3-0.1,0.5-0.1c0.1,0,0.3,0,0.3,0.1c0.1,0,0.2,0.1,0.2,0.2
		c0,0.1,0.1,0.2,0.1,0.3c0,0.1,0,0.3,0,0.4v1.8h0.5v-2c0-0.4-0.1-0.7-0.3-0.9c-0.2-0.2-0.4-0.3-0.8-0.3c-0.2,0-0.4,0-0.5,0.1
		c-0.2,0.1-0.3,0.2-0.5,0.3V6h-0.5v3.1h0.5V6.8z"/>
	<path class="st4" d="M23.6,9.2c0.2,0,0.4,0,0.5-0.1c0.2-0.1,0.3-0.2,0.5-0.3v0.3h0.5V6h-0.5v2.3c-0.1,0.1-0.3,0.2-0.5,0.3
		c-0.2,0.1-0.3,0.1-0.4,0.1c-0.2,0-0.3,0-0.4-0.1c-0.1,0-0.1-0.1-0.2-0.2c0-0.1-0.1-0.2-0.1-0.3c0-0.1,0-0.2,0-0.4V6h-0.5v2
		c0,0.4,0.1,0.7,0.3,0.9C23,9.1,23.3,9.2,23.6,9.2z"/>
	<path class="st4" d="M26.5,6.1C26.3,6.1,26.2,6,26,6v3.2h0.5V6.1z"/>
	<path class="st4" d="M27.8,6.7c-0.2-0.1-0.3-0.2-0.5-0.2v2.7h0.5V6.7z"/>
	<polygon class="st4" points="30,8.3 29.3,8.3 28.8,10.2 29.2,10.2 	"/>
	<path class="st4" d="M9.3,12.2c0.1,0,0.2,0,0.2,0c0.1,0,0.2,0,0.2,0.1h0v-0.5c-0.1,0-0.2,0-0.3,0c-0.1,0-0.2,0-0.3,0c0,0,0,0,0,0
		C9,12,8.9,12.2,8.8,12.4c0,0,0,0,0,0C8.9,12.3,9,12.2,9.3,12.2z"/>
	<path class="st4" d="M8.6,13.5h0.9V13h-1v-0.1c0-0.2,0-0.3,0.1-0.4c-0.2,0.3-0.4,0.7-0.6,1.1v2.6h0.5V13.5z"/>
	<path class="st4" d="M10.9,16.2c0.2,0,0.4,0,0.5-0.1c0.2-0.1,0.3-0.2,0.5-0.3v0.3h0.5V13h-0.5v2.3c-0.1,0.1-0.3,0.2-0.5,0.3
		c-0.2,0.1-0.3,0.1-0.4,0.1c-0.2,0-0.3,0-0.4-0.1c-0.1,0-0.1-0.1-0.2-0.2c0-0.1-0.1-0.2-0.1-0.3c0-0.1,0-0.2,0-0.4V13H9.8v2
		c0,0.4,0.1,0.7,0.3,0.9C10.3,16.1,10.6,16.2,10.9,16.2z"/>
	<path class="st4" d="M13.3,13v3.1h0.5v-2.3c0.1-0.1,0.3-0.2,0.5-0.3c0.2-0.1,0.3-0.1,0.5-0.1c0.1,0,0.3,0,0.3,0.1
		c0.1,0,0.2,0.1,0.2,0.2c0,0.1,0.1,0.2,0.1,0.3c0,0.1,0,0.3,0,0.4v1.8h0.5v-2c0-0.4-0.1-0.7-0.3-0.9c-0.2-0.2-0.4-0.3-0.8-0.3
		c-0.2,0-0.4,0-0.5,0.1c-0.2,0.1-0.3,0.2-0.5,0.3V13H13.3z"/>
	<path class="st4" d="M16.6,15.3c0.1,0.2,0.2,0.4,0.3,0.5c0.1,0.1,0.3,0.2,0.5,0.3c0.2,0.1,0.4,0.1,0.6,0.1c0.2,0,0.3,0,0.5-0.1
		c0.2,0,0.3-0.1,0.5-0.2v-0.6h0c0,0-0.1,0.1-0.2,0.1c-0.1,0-0.1,0.1-0.2,0.1c-0.1,0-0.2,0.1-0.3,0.1s-0.2,0-0.3,0
		c-0.3,0-0.5-0.1-0.7-0.3C17.1,15.3,17,15,17,14.6c0-0.4,0.1-0.7,0.3-0.9c0.2-0.2,0.4-0.3,0.7-0.3c0.2,0,0.3,0,0.5,0.1
		c0.2,0.1,0.3,0.2,0.5,0.3h0v-0.6c-0.1-0.1-0.3-0.1-0.5-0.2c-0.2-0.1-0.3-0.1-0.5-0.1c-0.5,0-0.8,0.1-1.1,0.4
		c-0.3,0.3-0.4,0.7-0.4,1.2C16.4,14.9,16.5,15.1,16.6,15.3z"/>
	<path class="st4" d="M19.4,15.1c0,0.4,0.1,0.7,0.3,0.8c0.2,0.2,0.4,0.3,0.7,0.3c0.1,0,0.2,0,0.3,0c0.1,0,0.2,0,0.3-0.1v-0.5h0
		c0,0-0.1,0-0.2,0.1c-0.1,0-0.2,0-0.3,0c-0.1,0-0.3,0-0.3-0.1c-0.1,0-0.1-0.1-0.2-0.2c0-0.1-0.1-0.2-0.1-0.3c0-0.1,0-0.2,0-0.4v-1.4
		h1.1V13H20v-0.9h-0.5V13h-0.4v0.4h0.4V15.1z"/>
	<rect x="21.4" y="11.9" class="st4" width="0.6" height="0.5"/>
	<rect x="21.5" y="13" class="st4" width="0.5" height="3.1"/>
	<path class="st4" d="M24,12.9c-0.4,0-0.8,0.1-1.1,0.4c-0.3,0.3-0.4,0.7-0.4,1.2c0,0.5,0.1,0.9,0.4,1.2c0.3,0.3,0.6,0.4,1.1,0.4
		c0.4,0,0.8-0.1,1.1-0.4c0.3-0.3,0.4-0.7,0.4-1.2c0-0.5-0.1-0.9-0.4-1.2C24.8,13.1,24.5,12.9,24,12.9z M24.7,15.5
		c-0.2,0.2-0.4,0.3-0.7,0.3c-0.3,0-0.5-0.1-0.7-0.3c-0.2-0.2-0.2-0.5-0.2-0.9c0-0.4,0.1-0.7,0.2-0.9c0.2-0.2,0.4-0.3,0.7-0.3
		c0.3,0,0.5,0.1,0.7,0.3c0.2,0.2,0.2,0.5,0.2,0.9C24.9,15,24.9,15.3,24.7,15.5z"/>
	<path class="st4" d="M28.2,14.4v1.8h0.5v-2c0-0.4-0.1-0.7-0.3-0.9c-0.2-0.2-0.4-0.3-0.8-0.3c-0.2,0-0.4,0-0.5,0.1
		c-0.2,0.1-0.3,0.2-0.5,0.3V13h-0.5v3.1h0.5v-2.3c0.1-0.1,0.3-0.2,0.5-0.3c0.2-0.1,0.3-0.1,0.5-0.1c0.1,0,0.3,0,0.3,0.1
		c0.1,0,0.2,0.1,0.2,0.2c0,0.1,0.1,0.2,0.1,0.3C28.2,14.1,28.2,14.2,28.2,14.4z"/>
	<rect x="31.2" y="11.9" class="st4" width="0.6" height="0.5"/>
	<rect x="31.3" y="13" class="st4" width="0.5" height="3.1"/>
	<path class="st4" d="M33.1,13.8c0.1-0.1,0.3-0.2,0.5-0.3c0.2-0.1,0.3-0.1,0.5-0.1c0.1,0,0.3,0,0.3,0.1c0.1,0,0.2,0.1,0.2,0.2
		c0,0.1,0.1,0.2,0.1,0.3c0,0.1,0,0.3,0,0.4v1.8h0.5v-2c-0.2-0.4-0.4-0.8-0.6-1.1c-0.1-0.1-0.3-0.1-0.5-0.1c-0.2,0-0.4,0-0.5,0.1
		c-0.2,0.1-0.3,0.2-0.5,0.3V13h-0.5v3.1h0.5V13.8z"/>
	<path class="st4" d="M6.5,20c0,0.1,0,0.2,0,0.3c0,0.1,0,0.1,0,0.2c0.1,0,0.2,0.1,0.2,0.2C6.9,20.9,7,21.2,7,21.6
		c0,0.4-0.1,0.7-0.2,0.9c0,0,0,0-0.1,0.1c0,0.2,0.1,0.4,0.1,0.5C6.9,23,7,22.9,7.1,22.8c0.3-0.3,0.4-0.7,0.4-1.2
		c0-0.5-0.1-0.9-0.4-1.2C6.9,20.2,6.7,20.1,6.5,20z"/>
	<path class="st4" d="M10,20.6L10,20.6l0-0.5c-0.1,0-0.1,0-0.2,0c0,0-0.1,0-0.2,0c-0.2,0-0.3,0-0.5,0.1c-0.2,0.1-0.3,0.2-0.6,0.4
		v-0.5H8.1v3.1h0.5V21c0.1-0.1,0.3-0.2,0.4-0.3c0.2-0.1,0.3-0.1,0.5-0.1c0.1,0,0.2,0,0.3,0C9.9,20.6,9.9,20.6,10,20.6z"/>
	<path class="st4" d="M12.1,21.6c0,0.6,0.1,1.1,0.3,1.5c0.2,0.4,0.4,0.9,0.8,1.2h0.6v0c-0.1-0.1-0.3-0.3-0.4-0.5
		c-0.1-0.2-0.3-0.4-0.4-0.6c-0.1-0.2-0.2-0.5-0.3-0.8c-0.1-0.3-0.1-0.6-0.1-0.9c0-0.3,0-0.6,0.1-0.9c0.1-0.3,0.2-0.5,0.3-0.8
		c0.1-0.2,0.2-0.4,0.4-0.6c0.1-0.2,0.3-0.3,0.4-0.5v0h-0.6c-0.3,0.4-0.6,0.8-0.8,1.2S12.1,21,12.1,21.6z"/>
	<polygon class="st4" points="15.9,23.2 17.2,20.1 16.6,20.1 15.7,22.5 14.7,20.1 14.1,20.1 15.4,23.2 	"/>
	<path class="st4" d="M20,21.1c0-0.2,0-0.4-0.1-0.5c-0.1-0.1-0.2-0.2-0.3-0.3c-0.1-0.1-0.3-0.2-0.4-0.2C19,20,18.8,20,18.6,20
		c-0.2,0-0.4,0-0.6,0.1s-0.3,0.1-0.4,0.1v0.5h0c0.2-0.1,0.4-0.1,0.5-0.2c0.2,0,0.3-0.1,0.5-0.1c0.1,0,0.2,0,0.3,0s0.2,0,0.3,0.1
		c0.1,0,0.1,0.1,0.2,0.2c0,0.1,0.1,0.2,0.1,0.3v0.1c-0.3,0-0.6,0-0.9,0.1c-0.3,0-0.5,0.1-0.7,0.2c-0.2,0.1-0.3,0.2-0.4,0.3
		c-0.1,0.1-0.2,0.3-0.2,0.6c0,0.3,0.1,0.5,0.3,0.7c0.2,0.2,0.4,0.3,0.7,0.3c0.2,0,0.3,0,0.4,0c0.1,0,0.2-0.1,0.3-0.1
		c0.1,0,0.2-0.1,0.2-0.1c0.1-0.1,0.1-0.1,0.2-0.1v0.3H20V21.1z M19.4,22.4c-0.1,0.1-0.3,0.2-0.4,0.3c-0.2,0.1-0.3,0.1-0.5,0.1
		c-0.2,0-0.4,0-0.5-0.1c-0.1-0.1-0.2-0.2-0.2-0.4c0-0.2,0-0.3,0.1-0.4c0.1-0.1,0.2-0.2,0.4-0.2c0.1,0,0.3-0.1,0.5-0.1
		c0.2,0,0.4,0,0.6,0V22.4z"/>
	<path class="st4" d="M21.3,20.5v-0.5h-0.5v3.1h0.5V21c0.1-0.1,0.3-0.2,0.4-0.3c0.2-0.1,0.3-0.1,0.5-0.1c0.1,0,0.2,0,0.3,0
		c0.1,0,0.2,0,0.2,0h0v-0.5c-0.1,0-0.1,0-0.2,0c0,0-0.1,0-0.2,0c-0.2,0-0.3,0-0.5,0.1C21.7,20.2,21.5,20.3,21.3,20.5z"/>
	<rect x="24.8" y="20.1" class="st4" width="0.5" height="3.1"/>
	<rect x="24.7" y="19" class="st4" width="0.6" height="0.5"/>
	<rect x="28.1" y="21.7" class="st4" width="3.3" height="0.4"/>
	<rect x="28.1" y="20.5" class="st4" width="3.3" height="0.4"/>
	<path class="st4" d="M36.5,19.4c-0.2-0.3-0.6-0.5-1.1-0.5c-0.5,0-0.9,0.2-1.1,0.5c-0.2,0.4-0.4,0.9-0.4,1.6c0,0.7,0.1,1.3,0.3,1.6
		c0.2,0.4,0.6,0.5,1.1,0.5c0.3,0,0.6-0.1,0.8-0.3c0.2-0.9,0.2-1.8,0.2-2.7C36.5,20,36.5,19.7,36.5,19.4z M36.3,21.8
		c0,0.2-0.1,0.4-0.1,0.5c-0.1,0.1-0.2,0.3-0.3,0.3c-0.1,0.1-0.3,0.1-0.4,0.1c-0.2,0-0.3,0-0.5-0.1c-0.1-0.1-0.2-0.2-0.3-0.3
		c-0.1-0.2-0.1-0.3-0.1-0.5c0-0.2,0-0.4,0-0.7c0-0.3,0-0.5,0-0.7c0-0.2,0.1-0.4,0.1-0.5c0.1-0.1,0.2-0.3,0.3-0.3
		c0.1-0.1,0.3-0.1,0.4-0.1c0.2,0,0.3,0,0.4,0.1c0.1,0.1,0.2,0.2,0.3,0.3c0.1,0.1,0.1,0.3,0.1,0.5c0,0.2,0,0.5,0,0.7
		C36.3,21.4,36.3,21.6,36.3,21.8z"/>
	<path class="st4" d="M7.9,26.7c0.1,0.2,0.2,0.3,0.2,0.5L9,26H8.4L7.9,26.7z"/>
	<path class="st4" d="M13.2,27c-0.2,0-0.4,0-0.6,0.1c-0.2,0.1-0.4,0.2-0.6,0.4c-0.1-0.2-0.2-0.3-0.3-0.4S11.4,27,11.2,27
		c-0.2,0-0.4,0-0.5,0.1c-0.2,0.1-0.3,0.2-0.5,0.3v-0.3H9.6v2.4c0.2,0.2,0.3,0.4,0.5,0.6v-2.2c0.1-0.1,0.3-0.2,0.4-0.3
		c0.1-0.1,0.3-0.1,0.4-0.1c0.2,0,0.3,0,0.3,0.1c0.1,0,0.1,0.1,0.2,0.2c0,0.1,0.1,0.2,0.1,0.3c0,0.1,0,0.3,0,0.4v1.8h0.5v-2
		c0-0.1,0-0.1,0-0.2c0-0.1,0-0.1,0-0.2c0.1-0.1,0.3-0.2,0.4-0.3c0.1-0.1,0.3-0.1,0.4-0.1c0.2,0,0.3,0,0.3,0.1c0.1,0,0.1,0.1,0.2,0.2
		c0,0.1,0.1,0.2,0.1,0.3c0,0.1,0,0.3,0,0.4v1.8h0.5v-2c0-0.4-0.1-0.7-0.2-0.9C13.8,27.1,13.5,27,13.2,27z"/>
	<rect x="15.1" y="25.8" class="st4" width="0.5" height="4.4"/>
	<polygon class="st4" points="19.8,30.2 19.8,26 19.3,26 19.3,27.7 17.2,27.7 17.2,26 16.6,26 16.6,30.2 17.2,30.2 17.2,28.2 
		19.3,28.2 19.3,30.2 	"/>
	<path class="st4" d="M22.1,30.3c0.1,0,0.2,0,0.3-0.1v-0.5h0c0,0-0.1,0-0.2,0.1c-0.1,0-0.2,0-0.3,0c-0.1,0-0.3,0-0.3-0.1
		c-0.1,0-0.1-0.1-0.2-0.2c0-0.1-0.1-0.2-0.1-0.3c0-0.1,0-0.2,0-0.4v-1.4h1.1v-0.4h-1.1v-0.9h-0.5v0.9h-0.4v0.4h0.4v1.7
		c0,0.4,0.1,0.7,0.3,0.8c0.2,0.2,0.4,0.3,0.7,0.3C21.9,30.3,22,30.3,22.1,30.3z"/>
	<path class="st4" d="M23.5,26.2H23v0.9h-0.4v0.4H23v1.7c0,0.4,0.1,0.7,0.2,0.8c0.2,0.2,0.4,0.3,0.7,0.3c0.1,0,0.2,0,0.3,0
		c0.1,0,0.2,0,0.3-0.1v-0.5h0c0,0-0.1,0-0.2,0.1c-0.1,0-0.2,0-0.3,0c-0.1,0-0.3,0-0.3-0.1c-0.1,0-0.1-0.1-0.2-0.2
		c0-0.1-0.1-0.2-0.1-0.3c0-0.1,0-0.2,0-0.4v-1.4h1.1v-0.4h-1.1V26.2z"/>
	<path class="st4" d="M26.7,27c-0.2,0-0.4,0-0.6,0.1c-0.2,0.1-0.3,0.2-0.5,0.3v-0.3h-0.5v4.3h0.5v-1.3c0.1,0.1,0.3,0.1,0.4,0.2
		c0.1,0,0.3,0.1,0.4,0.1c0.2,0,0.4,0,0.5-0.1c0.2-0.1,0.3-0.2,0.4-0.3c0.1-0.1,0.2-0.3,0.3-0.5c0.1-0.2,0.1-0.4,0.1-0.7
		c0-0.5-0.1-0.9-0.3-1.2C27.4,27.1,27.1,27,26.7,27z M27.1,29.5c-0.2,0.2-0.4,0.3-0.7,0.3c-0.1,0-0.3,0-0.4,0
		c-0.1,0-0.2-0.1-0.4-0.1v-1.8c0.1-0.1,0.3-0.2,0.4-0.3c0.2-0.1,0.3-0.1,0.5-0.1c0.3,0,0.5,0.1,0.6,0.3c0.1,0.2,0.2,0.5,0.2,0.8
		C27.4,29,27.3,29.3,27.1,29.5z"/>
	<path class="st4" d="M31.2,27.9c0.2-0.2,0.2-0.5,0.2-0.8c0-0.2,0-0.4-0.1-0.6c-0.1-0.1-0.2-0.3-0.4-0.4c-0.1-0.1-0.3-0.1-0.5-0.2
		c-0.2,0-0.4,0-0.6,0h-1.2v4.2h0.6v-1.7H30l1.4,1.7h0.7l-1.6-1.8C30.8,28.3,31.1,28.1,31.2,27.9z M29.8,28.1h-0.6v-1.6h0.7
		c0.1,0,0.3,0,0.4,0c0.1,0,0.2,0.1,0.3,0.1c0.1,0.1,0.2,0.1,0.2,0.2c0,0.1,0.1,0.2,0.1,0.3c0,0.2,0,0.3-0.1,0.4
		c0,0.1-0.1,0.2-0.2,0.3C30.5,28,30.4,28,30.3,28C30.1,28.1,30,28.1,29.8,28.1z"/>
	<path class="st4" d="M33.7,27c-0.5,0-0.8,0.2-1.1,0.5c-0.3,0.3-0.4,0.7-0.4,1.2c0,0.5,0.1,0.9,0.4,1.2c0.1,0.1,0.2,0.2,0.3,0.2
		c0.1-0.1,0.2-0.3,0.3-0.4c-0.1,0-0.1-0.1-0.2-0.1c-0.1-0.1-0.2-0.2-0.2-0.4c-0.1-0.1-0.1-0.3-0.1-0.5H34c0.1-0.1,0.2-0.3,0.3-0.4
		h-1.5c0-0.2,0.1-0.5,0.3-0.6c0.2-0.2,0.4-0.2,0.7-0.2c0.3,0,0.5,0.1,0.6,0.2c0.1,0.1,0.1,0.2,0.2,0.3c0.1-0.2,0.2-0.3,0.3-0.5
		c0,0,0,0,0-0.1C34.5,27.1,34.1,27,33.7,27z"/>
	<path class="st4" d="M15.6,34.1L15.6,34.1L15.6,34.1C15.6,34.1,15.6,34.1,15.6,34.1z"/>
	<path class="st4" d="M16.7,34c-0.2,0-0.4,0-0.6,0.1c-0.1,0-0.1,0.1-0.2,0.1c0.6,0.2,1.2,0.4,1.8,0.6c-0.1-0.1-0.1-0.3-0.2-0.4
		C17.3,34.2,17,34,16.7,34z"/>
	<path class="st4" d="M19.7,34c-0.5,0-0.8,0.2-1.1,0.5c-0.1,0.1-0.2,0.3-0.3,0.5c0.2,0,0.3,0.1,0.5,0.1c0-0.1,0.1-0.3,0.2-0.4
		c0.2-0.2,0.4-0.3,0.7-0.3c0.3,0,0.5,0.1,0.6,0.2c0.1,0.1,0.2,0.3,0.2,0.6c0.2,0,0.3,0,0.5,0c0-0.4-0.1-0.7-0.3-0.9
		C20.5,34.2,20.2,34,19.7,34z"/>
	<path class="st4" d="M23.2,34c-0.2,0-0.4,0-0.5,0.1c-0.2,0.1-0.3,0.2-0.5,0.3v-0.3h-0.5v1.2c0.2,0,0.4,0,0.5,0v-0.4
		c0.1-0.1,0.3-0.2,0.5-0.3c0.2-0.1,0.3-0.1,0.5-0.1c0.1,0,0.3,0,0.3,0.1c0.1,0,0.2,0.1,0.2,0.2c0,0.1,0.1,0.2,0.1,0.3
		c0,0,0,0.1,0,0.1c0.2,0,0.4-0.1,0.5-0.1c0-0.3-0.1-0.6-0.3-0.7C23.8,34.1,23.6,34,23.2,34z"/>
	<path class="st4" d="M27.1,34.2c-0.1-0.1-0.3-0.1-0.4-0.2c-0.1,0-0.3-0.1-0.4-0.1c-0.2,0-0.4,0-0.5,0.1c-0.2,0.1-0.3,0.2-0.4,0.3
		c-0.1,0.1-0.2,0.3-0.3,0.5c0.2-0.1,0.5-0.1,0.7-0.2c0.2-0.2,0.4-0.2,0.6-0.2c0,0,0.1,0,0.1,0c0.4-0.1,0.8-0.3,1.2-0.5v-1.2h-0.5
		V34.2z"/>
</g>
<path class="st5" d="M20.4,13.9c0.8,0.8,0.8,2.1,0,3l0,0l11.8,11.8c0.6,0.6,0.6,1.5,0,2.1s-1.5,0.6-2.1,0L18.3,19
	c-0.8,0.8-2.1,0.8-3,0l0,0l-6.2-6.2c-0.2-0.2-0.2-0.6,0-0.8l4.3-4.3c0.2-0.2,0.6-0.2,0.8,0L20.4,13.9L20.4,13.9z"/>
<path class="st4" d="M20.4,13.9c0.8,0.8,0.8,2.1,0,3l0,0l11.8,11.8c0.6,0.6,0.6,1.5,0,2.1s-1.5,0.6-2.1,0L18.3,19
	c-0.8,0.8-2.1,0.8-3,0l0,0l-6.2-6.2c-0.2-0.2-0.2-0.6,0-0.8c0.2-0.2,0.6-0.2,0.8,0l4.6,4.6l1.3-1.3l-4.6-4.6c-0.2-0.2-0.2-0.6,0-0.8
	c0.2-0.2,0.6-0.2,0.8,0l4.6,4.6l1.3-1.3l-4.6-4.6c-0.2-0.2-0.2-0.6,0-0.8c0.2-0.2,0.6-0.2,0.8,0L20.4,13.9L20.4,13.9z"/>
</svg>
